<?xml version="1.0" encoding="utf-8"?>
<!-- Generator: Adobe Illustrator 22.0.1, SVG Export Plug-In . SVG Version: 6.00 Build 0)  -->
<svg version="1.1" id="레이어_1" xmlns="http://www.w3.org/2000/svg" xmlns:xlink="http://www.w3.org/1999/xlink" x="0px"
	 y="0px" viewBox="0 0 1820 324" style="enable-background:new 0 0 1820 324;" xml:space="preserve">
<style type="text/css">
	.st0{clip-path:url(#SVGID_2_);}
	.st1{fill:none;stroke:#FFFFFF;stroke-width:3;}
	.st2{fill:#1C43CE;}
</style>
<g>
	<defs>
		<rect id="SVGID_1_" width="1820" height="324"/>
	</defs>
	<clipPath id="SVGID_2_">
		<use xlink:href="#SVGID_1_"  style="overflow:visible;"/>
	</clipPath>
	<g class="st0">
		<path class="st1" d="M342.5,22.9L342.5,22.9L342.5,22.9c5.7,6.3,8.1,14.4,6.5,23.9l0,0.1l0,0.1c-1.1,11.1-5.1,18.9-11.6,24
			c-6.7,5.2-14.9,7.8-24.7,7.8c-6.1,0-11.8-0.8-16.7-2.3l0,0c-5.4-1.6-11.1-2.4-17.2-2.4c-6.4,0-13,1.5-19.7,4.7l0,0l0,0
			c-6.5,3.3-13.2,8.5-19.7,15.5l-28,29l-0.7,0.7l0.3,0.9l45.9,121c2.7,7.2,5.5,12.9,8.4,16.8c3.1,4.3,7.4,6.5,12.6,6.5
			c3.1,0,6-0.9,8.5-2.7c2.3-1.6,4.7-3.7,7.1-6.6c3.8-2.9,7.2-3.6,10.1-2.8c2.2,0.7,3.9,2,4.9,4.3l0,0l0,0c1.1,2.1,0.9,5.3-1.2,10.1
			l0,0l0,0c-3.7,9.3-9,17.6-15.7,24.4c-6.7,6.8-14.4,12.3-23.1,16l0,0l0,0c-8.7,3.9-18,5.7-27.9,5.7c-12.6,0-21.9-2.8-27.8-8
			c-6.1-5.3-11.5-14.1-16.1-26.3l0,0l-38.7-101.9l-0.8-2.2l-1.6,1.7l-35.5,36.8l-0.3,0.3l-0.1,0.4c-0.5,2.4-1.1,4.7-1.7,7
			c-0.4,1.7-0.9,3.5-1.3,5.2c-1.7,6.7-3.2,12.8-4.5,18.2c-0.9,3.7-1.7,7.1-2.5,10.1l0,0l0,0c-1.7,7.4-2.8,12.5-3.3,14.9
			c-0.7,3-0.4,5.5,1.2,7.7l0,0l0,0c1.5,1.8,3.6,3.4,6.5,4.4l0,0l0,0l8.8,3c2.7,1.3,4.7,2.8,6.5,4.6c1.4,1.6,2.3,3.7,2.3,6.6
			c0,3.7-1.3,6.4-3.7,8.5c-2.5,2.1-6.2,3.3-11.6,3.3h-102c-2.8,0-5-0.3-6.8-0.8c-1.8-0.5-2.9-1.2-3.6-2l0,0l0,0
			c-1.8-1.9-2.6-4.3-2.6-7.4v0l0,0c-0.1-3.1,0.8-5.5,2.7-7.6c2.1-2.1,4.4-3.6,7.1-4.5l10.6-2.7l0,0l0,0c3.7-1.2,6.5-2.9,8.5-5.4
			c1.9-2.4,3.5-5.7,5.1-10.2l0,0l0,0c1.4-4.8,3.3-11.6,5.7-20.5c1.7-6,3.5-12.6,5.5-19.9c0.9-3.4,1.9-7,2.9-10.7
			c3.2-11.6,6.5-23.8,9.8-36.5c1.7-6.3,3.3-12.7,5-19.1l0,0c1.7-6.4,3.3-12.8,5-19.1l0.5-1.9c3.1-12,6.1-23.4,8.8-34.2
			c3-11.4,5.5-21.6,7.8-30.4l0,0c2.2-8.9,3.8-15.7,4.8-20.5c0.8-3.7,0.9-6.7-0.5-9.1c-1.3-2.3-3.6-3.9-6.9-5l0,0l0,0l-9.6-2.7
			c-2.8-1.2-4.8-2.6-6.2-4.2c-1.3-1.4-2-3.3-2-5.6c0-3.6,1.4-6.4,4.2-8.6c2.8-2.1,6.8-3.3,12.1-3.3h103.8c4.4,0,7.3,1.1,8.9,2.7
			c1.7,1.7,2.6,4.1,2.6,7.2c0,3.5-1,5.7-2.8,7.3c-2.1,1.8-4.9,3.4-8.6,5L176.2,45l0,0l0,0c-2.9,1-5.5,2.6-7.5,4.6l0,0l0,0
			c-2.1,2.3-3.9,5.7-5.4,10l0,0l0,0c-1.5,4.9-3.5,11.9-6.1,20.9l-0.3,1c-2.7,9.5-5.7,20.6-9,33l0,0c-2.4,9.2-5,18.7-7.6,28.5
			c-0.9,3.5-1.9,7.1-2.9,10.7l0,0c-1.9,7.3-3.8,14.4-5.7,21.5l2.5,1.4l122.9-129c0,0,0,0,0,0c8.2-8.4,15.6-15.1,22-20.1l0,0l0,0
			c6.4-5.1,12.7-8.7,18.8-11c6-2.3,12.5-3.4,19.1-3.4C328.4,13.2,336.8,16.5,342.5,22.9z"/>
		<path class="st1" d="M609.6,89.5L609.6,89.5l0,0.1c0.8,4.5,0.3,7.7-1.5,10.3c-1.6,2.3-4.1,3.7-7.7,4.3c-4.1,0.6-7.7-0.2-10.5-2.1
			l0,0l0,0c-2.9-2-5.6-5.9-8.1-12.2c-3.7-13-7.7-23.1-12-30.4l0,0l0,0c-4.4-7.1-9.6-12.4-15.5-15.4c-5.8-3-12.9-4.4-21.1-4.4H491
			h-1.1l-0.3,1.1c-0.2,0.5-0.3,1.1-0.5,1.7c-1.4,5-3.3,11.7-5.7,20.5c-2.4,8.8-5.1,18.7-8.1,29.9c-0.4,1.4-0.7,2.7-1.1,4.1
			c-3.5,12.8-7.1,26.5-10.9,40.7c-0.6,2-1.1,4-1.6,6l0,0c-0.5,2-1,3.9-1.6,5.9l-0.5,1.9h2h34.2c6.8,0,12.7-2,17.7-5.9
			c5.1-3.9,8.9-11.3,11.6-21.6c1.5-2.8,3-4.5,4.8-5.6c1.8-1.1,3.8-1.7,6-1.7c3.7,0,6.3,0.9,8,2.6c1.8,1.8,2.9,4.3,3.5,7.7l7.3,63.6
			l0,0l0,0c0.9,5.4,0.2,8.7-1.8,10.7c-2.2,2.2-5,3.4-8.8,3.5h0l0,0c-2.8,0.1-5-0.6-6.9-1.9c-2-1.6-3.6-3.5-4.9-5.9
			c-3.7-9.6-8.2-16.5-13.8-20.4l0,0l0,0c-5.7-3.9-13.5-5.8-23.3-5.8h-39.8H454l-0.3,1.2c-0.3,1.3-0.7,2.6-1,3.9l0,0
			c-0.4,1.3-0.7,2.6-1,4c-1.5,5.7-2.9,11.2-4.3,16.7c-2.1,8-4.1,15.7-6,23.1c-3.2,12.4-5.9,23-8.1,31.9l0,0.1
			c-2.2,8.8-3.8,15.1-4.4,19c-0.8,4.4-0.8,8.3-0.2,11.5c0.7,3.6,2.8,6.2,6,7.9c3.1,1.6,7.4,2.4,12.9,2.4H478c10.3,0,19.4-1.6,27.1-5
			c7.9-3.4,15-9.1,21.8-17c6.8-7.9,13.6-18.8,20.5-32.6c4.8-8.7,10.1-12.5,15.5-12.5c3.8,0,6.4,1.2,8,3.3c1.7,2.2,2.6,5.6,2.5,10.7
			v0c-0.3,12.2-2,23-4.8,32.9c-3,9.7-6.9,18.1-11.7,24.9l0,0l0,0c-4.8,6.9-10.6,12.2-17.2,15.7c-6.6,3.5-14.1,5.4-22.4,5.4
			c-5.9,0-11.4-0.9-16.6-2.9c-5.6-2.1-12.1-3.1-19.5-3.1H332.9c-5.6,0-8.8-1.1-10.3-2.8l0,0l0,0c-1.8-1.9-2.6-4.3-2.6-7.4
			c0-2.8,0.8-5.2,2.6-7.3c1.9-2.1,4.3-3.7,7.2-4.8l10.9-3l0,0l0,0c3.7-1.2,6.6-3.1,8.5-5.8c1.9-2.6,3.7-6.5,5.4-11.8l0,0l0,0
			c0.2-0.8,0.5-1.8,0.9-3.1c0.9-3,2.1-7.3,3.6-12.8c0,0,0,0,0,0l0.2-0.6c2-7.5,4.5-16.6,7.3-27.2c1.6-6.2,3.3-12.6,5.1-19.3
			c1.4-5.2,2.8-10.6,4.3-16.1c1.4-5.4,2.8-10.7,4.3-16.1c2-7.4,3.9-14.8,5.9-22.2l0,0c3.3-13,6.5-25.2,9.7-36.7l0,0
			c3.2-11.7,5.9-21.9,8.1-30.8c1.1-4.4,2.1-8.3,2.9-11.6c0.1-0.6,0.3-1.1,0.4-1.6c0.7-2.6,1.2-4.8,1.7-6.6l0,0
			c0.7-3,1.2-5.6,1.3-7.8c0.2-2.2,0.1-4.1-0.4-5.6c-0.9-3-3.1-5.1-6.4-6.1l-10.1-3.1c-2-1.1-3.9-2.2-5.6-3.7c-1.5-1.4-2.3-3.2-2.3-6
			c0-3.7,1.3-6.6,3.8-8.9c2.5-2.2,6.3-3.4,11.7-3.4h151.8c9,0,16.3-1.1,22-3.8c5.2-2.3,10.3-3.5,15.1-3.5c4.1,0,7.3,1.1,9.6,3.3
			c2.3,2.1,3.9,5.4,4.8,10L609.6,89.5z"/>
		<path class="st1" d="M736.6,178.1l-0.7-4.6c-1-5.9-1.9-12.2-2.9-18.9c-1.7-11.3-3.5-23.1-5.2-35.3c-1-6.1-1.8-12.1-2.7-17.9
			l-0.1-0.8c-0.8-5.6-1.6-11.1-2.4-16.5l0,0l0,0c-1.6-11.2-3-20.9-4.3-29.3c-1.3-8.4-2.2-14.2-3-17.6l0,0l0,0
			c-1.1-6.3-3.5-10.6-7-13.1l0,0l0,0c-3.6-2.7-9.1-4.1-16.5-4.1h-55.3c-5.2,0-8.9,1.2-11.5,3.4c-2.7,2.2-3.9,5-3.7,8.5l0,0v0
			c0,2.7,0.8,4.6,2.3,6.1l0,0l0,0c1.5,1.6,3.8,2.9,6.8,4c5,1.1,8.9,3,11.5,5.2l0,0l0,0c2.6,2.5,4.5,5.9,5.5,10.6
			c0.6,2.9,1.6,7.7,2.9,14.6 M736.6,178.1l2.1-4.1l55-108.7c7.4-13.9,14.6-24.7,21.4-32.7c6.7-8,13.5-13.5,20.4-16.7
			c6.9-3.2,14.2-4.9,22-4.9c10,0,17.4,2.6,22.4,7.6c4.9,5.1,7.5,11.4,7.8,18.8c0,9.4-3.3,17.2-10.1,23.8
			c-6.9,6.4-17.1,11.7-30.8,15.7l0,0l0,0c-7.6,2.4-14.7,4.9-20.8,7.8l0,0l0,0c-6.2,3.1-11.8,7.1-16.9,12.2c-5,5.1-9.9,12-14.5,20.6
			l0,0l0,0l-43.9,84.9c-2.7,5-4.7,9.3-6,13c-1.3,3.7-2.4,7.2-3.2,10.4l0,0l0,0l-10.8,45.9c-1.1,3.9-1.2,7.2-0.1,9.7
			c1.2,2.5,3.5,4.4,6.8,5.4l0,0l9.6,3c3.5,1.5,5.5,3,6.6,4.5c1,1.5,1.5,3.3,1.5,5c0,4-1.4,6.9-4,9c-2.8,2.1-6.6,3.3-11.8,3.3H634.5
			c-5.4,0-8.7-1.1-10.3-2.7c-1.7-1.7-2.7-4.2-2.7-7.3c0-2.8,0.8-5.1,2.5-7c1.7-2,4.3-3.7,7.9-5.2l10.2-2.7l0,0l0,0
			c3.9-1.2,6.8-3.1,8.8-5.6c1.9-2.4,3.6-6.1,4.9-10.7l0,0l0,0l12.8-48.3c1.5-4.5,1.8-9.3,1.2-14.3c-0.6-4.8-1.4-9.6-2.2-14.2l0,0
			l0,0c-0.6-3-1.4-7.8-2.4-14.8c-0.3-2.2-0.6-4.5-1-7c-0.7-5.3-1.5-11-2.4-17.4c-0.4-3.2-0.9-6.4-1.3-9.7
			c-0.9-6.4-1.8-12.9-2.6-19.5c-0.9-6.9-1.8-13.6-2.7-20.2c-0.4-2.9-0.8-5.8-1.2-8.7c-1.3-9.2-2.5-17.3-3.8-24.1"/>
		<path class="st1" d="M1096.8,69.6l-0.6,1.9h2h49.6c4.2,0,7.2,1,9,2.8c1.9,1.7,2.9,4.3,2.9,8.1c0,7-2.8,12.4-8.6,16.5
			c-5.9,4.1-13.8,6.2-23.7,6.2h-39.9h-1.1l-0.3,1.1l-33.6,116.6c0,0,0,0,0,0c-2.2,7.3-3.4,13.6-3.9,18.8c-0.4,5.2,0.1,9.4,1.6,12.6
			c2.9,6.5,9.5,9.4,18.9,9.4c6.4,0,12.7-1.5,18.7-4.6c6.1-3.1,12.4-8.2,18.8-15.2c3.1-3.4,5.7-5.5,7.7-6.7c2-1,4.2-1.6,6.3-1.6
			c2.8,0,5.1,1,6.6,2.8c1.5,1.8,2.2,4.4,1.7,8.2c-1.1,8.1-4.7,16.6-11.1,25.3c-6.4,8.7-15,17-25.7,24.7
			c-10.6,7.7-23.2,13.9-37.4,18.6l0,0l0,0c-14.2,4.9-29.6,7.2-46.3,7.2c-16.5,0-28.8-3.3-37.3-9.8l0,0l0,0
			c-8.4-6.3-13.2-16.2-14.1-29.5v0l0,0c-1.1-13.4,1.4-30.6,7.4-51.4c0,0,0,0,0,0l28.2-92.2l0,0c1.7-5.7,2.8-10.5,3.5-14.5
			c0.6-4,0.8-7.3,0.4-9.8c-0.4-2.5-1.4-4.7-3-6.5c-1.6-1.8-3.7-3.1-6.3-4l0,0l0,0l-14.5-4.6c-3.7-1.5-6.4-3.6-8.1-6.1
			c-1.7-2.6-2.6-5.5-2.6-8.8c0-4.6,2-8.2,5.9-11c4-2.8,9.3-4.3,16.2-4.3h15.5c6.7,0,12.8-1.5,18.3-4.3c5.4-2.8,10.8-7,15.9-12.3l0,0
			l0,0l37.5-41.2c3.9-4,7.6-6.7,11.2-8.2l0,0l0,0c3.6-1.6,7.5-2.4,11.7-2.4c5.5,0,9.1,1.4,11.4,3.8c2.4,2.5,3.6,5.8,3.6,10.1
			c0,2.7-0.3,6.5-1.1,11.2l0,0v0c-0.6,4.6-2,10.1-3.8,16.3c0,0,0,0,0,0L1096.8,69.6z"/>
		<path class="st2" d="M1402.6,176c-11.9,0-22.8-2.7-32.8-8.2c-10-5.5-19.6-11.7-29-18.9s-18.5-13.5-27.7-18.9
			c-9.2-5.5-18.7-8.2-28.7-8.2c-11.9,0-22.7,3.6-32.3,10.9c-9.7,7.3-17.4,17.7-23.3,31.2c-2.8,4.4-6.5,7.8-10.6,10.3
			c-4.3,2.5-8.6,3.6-12.8,3.6c-12.2,0-16.3-7-12-21.1c3.8-13.8,10.9-26.8,21.4-38.7c10.5-11.9,22.7-21.5,36.6-28.7
			c14.1-7.1,28.5-10.8,43.6-10.8c14.7,0,27.7,2.7,38.8,8.1c11.1,5.4,21.1,11.6,29.9,18.7c8.9,7.1,17.3,13.5,25.4,18.9
			c8.1,5.5,16.2,8.2,24.6,8.2c10.9,0,21.1-3.2,30.6-9.3c9.3-6.2,16.3-15.7,20.9-28.5c3.6-5.7,7.8-9.8,12.2-12.5
			c4.4-2.7,8.9-4.1,13.3-4.1c6.2,0,10.3,1.9,12.4,5.5c2.1,3.6,1.9,9-0.3,16.2c-3.8,14.4-10.8,27.4-20.9,38.8
			c-10.1,11.6-22.2,20.6-36,27.4C1431.7,172.5,1417.3,176,1402.6,176z"/>
		<path class="st1" d="M1528.1,181L1528.1,181c7.1-17,16.7-33.2,28.8-48.3c12.1-15.1,26.4-28.5,42.9-39.9
			c16.5-11.5,35.2-20.6,55.8-27.2c20.6-6.6,43.1-9.9,67.4-9.9c22.4,0,41,1.4,55.4,4.6c14.5,3.2,25,7.2,31.6,12.2
			c6.5,5,9.2,10.4,8.6,16.7c-0.8,5.5-2.6,9.2-5.3,11.4c-2,1.6-4,3.1-6.1,4.7c-1.2,0.9-2.4,1.8-3.7,2.7c-3.8,2.8-6.5,7.3-8.2,13.3v0
			v0l-26.8,105.8c0,0,0,0,0,0c-1.8,6.8-2.9,12.5-3.5,17.3c-0.6,4.7-0.6,8.6,0.2,11.5c0.7,2.8,1.7,5,3.2,6.5c1.6,1.6,3.5,2.4,5.8,2.4
			c2.7,0,5.3-0.7,8-2.2c2.7-1.4,5.8-3.7,9.5-6.8l0,0c3.7-3.3,6.7-5,9-5.7c2.1-0.7,4.2-0.4,6.5,0.7c2.3,1.3,3.7,3.7,3.8,7.4
			c0.1,3.9-1.2,9-4.4,15.4c-7.9,14.8-19.6,26.6-34.9,35.7c-15.5,9.1-31.7,13.6-48.7,13.6c-14.4,0-24.3-3.6-30.4-10.4
			c-6.2-6.9-9.3-16.7-9.3-29.4c0-4.4,0.2-8.9,0.6-14l0-0.1v-0.1c0-0.2,0-0.4,0.1-0.7v0c0-0.3,0.1-0.6,0.1-1.1v-4.8l-2.7,3.9
			c-2.8,4.1-5.8,8-9,11.8c-12.2,14.6-26.3,25.5-42.1,33.2c-16,7.7-32.4,11.4-49.7,11.4c-23.3,0-40.9-7.5-53-22v0
			c-12.3-14.6-16.7-36.9-13.1-67.6v0v0C1516.3,215.5,1520.9,198.2,1528.1,181z M1702,172L1702,172c4.8-15,8.4-30.4,11-46.8
			c2.2-12.6,2.1-22.1-0.4-28.4c-1.2-3.1-3-5.5-5.4-7.1c-2.4-1.6-5.3-2.4-8.7-2.4c-8.5,0-16.7,3-24.9,8.7l0,0
			c-8.1,5.6-16,13.4-23.2,23.2c-7.2,9.7-13.9,20.8-20,33.2c-6,12.4-11.1,25.3-15.1,38.9c-4.1,13.6-6.9,26.8-8.3,39.9
			c-0.9,7.8-1.1,14.5-0.6,20c0.4,5.5,1.6,9.9,3.3,13.2c3.5,6.4,8.6,9.8,15.1,9.8c6.6,0,13.4-2.7,20.2-7.7c6.8-5,13.7-12.1,20.6-21.4
			c7-9.1,13.6-20,19.8-32.2C1691.6,200.5,1697.2,186.8,1702,172z"/>
	</g>
</g>
</svg>
