<svg width="25" height="25" viewBox="0 0 25 25" fill="none" xmlns="http://www.w3.org/2000/svg">
<g clip-path="url(#clip0_17_86)">
<path d="M5.07812 10.9375H1.17188C0.524658 10.9375 0 11.4622 0 12.1094V23.8281C0 24.4753 0.524658 25 1.17188 25H5.07812C5.72534 25 6.25 24.4753 6.25 23.8281V12.1094C6.25 11.4622 5.72534 10.9375 5.07812 10.9375ZM3.125 23.0469C2.47778 23.0469 1.95312 22.5222 1.95312 21.875C1.95312 21.2278 2.47778 20.7031 3.125 20.7031C3.77222 20.7031 4.29688 21.2278 4.29688 21.875C4.29688 22.5222 3.77222 23.0469 3.125 23.0469ZM18.75 3.97715C18.75 6.04824 17.4819 7.20996 17.1251 8.59375H22.0921C23.7228 8.59375 24.9923 9.94854 25 11.4306C25.0041 12.3064 24.6315 13.2494 24.0508 13.8328L24.0454 13.8381C24.5257 14.9776 24.4476 16.5743 23.5909 17.7185C24.0148 18.9829 23.5875 20.536 22.791 21.3687C23.0009 22.228 22.9006 22.9593 22.4908 23.548C21.4942 24.9798 19.0242 25 16.9355 25L16.7966 25C14.4388 24.9991 12.5092 24.1407 10.9587 23.4509C10.1795 23.1042 9.16079 22.6751 8.38784 22.6609C8.06851 22.6551 7.8125 22.3945 7.8125 22.0751V11.6371C7.8125 11.4809 7.8751 11.3309 7.98623 11.221C9.92051 9.30972 10.7522 7.28613 12.3376 5.69805C13.0605 4.97383 13.3234 3.87988 13.5775 2.82197C13.7947 1.9186 14.2489 0 15.2344 0C16.4062 0 18.75 0.390625 18.75 3.97715Z" fill="white"/>
</g>
<defs>
<clipPath id="clip0_17_86">
<rect width="25" height="25" fill="white"/>
</clipPath>
</defs>
</svg>
